HIERARCHY
ROOT Hips
{
    OFFSET   0.000000   0.000000   0.000000
    CHANNELS 6 Xposition Yposition Zposition Zrotation Xrotation Yrotation
    JOINT Chest
    {
        OFFSET   0.000000   8.007230   0.000000
        CHANNELS 3 Zrotation Xrotation Yrotation
        JOINT Chest2
        {
            OFFSET   0.000000  22.077100   0.000000
            CHANNELS 3 Zrotation Xrotation Yrotation
            JOINT Neck
            {
                OFFSET   0.000000  23.254800  -0.000021
                CHANNELS 3 Zrotation Xrotation Yrotation
                JOINT Head
                {
                    OFFSET   0.000000  14.370000   1.956610
                    CHANNELS 3 Zrotation Xrotation Yrotation
                    End Site
                    {
                        OFFSET   0.000000  19.566000   0.000000
                    }
                }
            }
            JOINT LeftCollar
            {
                OFFSET   3.911900  19.017000  -0.467063
                CHANNELS 3 Zrotation Xrotation Yrotation
                JOINT LeftShoulder
                {
                    OFFSET  10.383700   0.000000   0.000000
                    CHANNELS 3 Zrotation Xrotation Yrotation
                    JOINT LeftElbow
                    {
                        OFFSET  26.662100   0.001529   0.000325
                        CHANNELS 3 Zrotation Xrotation Yrotation
                        JOINT LeftWrist
                        {
                            OFFSET  28.869000  -0.000011  -0.000096
                            CHANNELS 3 Zrotation Xrotation Yrotation
                            JOINT LeftFinger0
                            {
                                OFFSET   2.044650  -2.323460   3.252850
                                CHANNELS 3 Zrotation Xrotation Yrotation
                                JOINT LeftFinger01
                                {
                                    OFFSET   3.088130   0.000000   0.000000
                                    CHANNELS 3 Zrotation Xrotation Yrotation
                                    JOINT LeftFinger02
                                    {
                                        OFFSET   2.639460   0.000000   0.000000
                                        CHANNELS 3 Zrotation Xrotation Yrotation
                                        End Site
                                        {
                                            OFFSET   2.582190   0.000000   0.000000
                                        }
                                    }
                                }
                            }
                            JOINT LeftFinger1
                            {
                                OFFSET   8.364480   0.000000   3.252850
                                CHANNELS 3 Zrotation Xrotation Yrotation
                                JOINT LeftFinger11
                                {
                                    OFFSET   4.646930   0.000000   0.000000
                                    CHANNELS 3 Zrotation Xrotation Yrotation
                                    JOINT LeftFinger12
                                    {
                                        OFFSET   2.323460   0.000000   0.000000
                                        CHANNELS 3 Zrotation Xrotation Yrotation
                                        End Site
                                        {
                                            OFFSET   2.273050   0.000000   0.000000
                                        }
                                    }
                                }
                            }
                            JOINT LeftFinger2
                            {
                                OFFSET   8.364480   0.000016   1.078090
                                CHANNELS 3 Zrotation Xrotation Yrotation
                                JOINT LeftFinger21
                                {
                                    OFFSET   5.111620   0.000000   0.000000
                                    CHANNELS 3 Zrotation Xrotation Yrotation
                                    JOINT LeftFinger22
                                    {
                                        OFFSET   2.788160   0.000017   0.000000
                                        CHANNELS 3 Zrotation Xrotation Yrotation
                                        End Site
                                        {
                                            OFFSET   2.727660   0.000000   0.000000
                                        }
                                    }
                                }
                            }
                            JOINT LeftFinger3
                            {
                                OFFSET   7.899780   0.000015  -1.078090
                                CHANNELS 3 Zrotation Xrotation Yrotation
                                JOINT LeftFinger31
                                {
                                    OFFSET   4.646920   0.000000   0.000000
                                    CHANNELS 3 Zrotation Xrotation Yrotation
                                    JOINT LeftFinger32
                                    {
                                        OFFSET   2.323470   0.000000   0.000000
                                        CHANNELS 3 Zrotation Xrotation Yrotation
                                        End Site
                                        {
                                            OFFSET   2.273050   0.000000   0.000000
                                        }
                                    }
                                }
                            }
                            JOINT LeftFinger4
                            {
                                OFFSET   7.435090   0.000000  -3.252850
                                CHANNELS 3 Zrotation Xrotation Yrotation
                                JOINT LeftFinger41
                                {
                                    OFFSET   3.717550   0.000000   0.000000
                                    CHANNELS 3 Zrotation Xrotation Yrotation
                                    JOINT LeftFinger42
                                    {
                                        OFFSET   1.858760   0.000000   0.000000
                                        CHANNELS 3 Zrotation Xrotation Yrotation
                                        End Site
                                        {
                                            OFFSET   1.818440   0.000000   0.000000
                                        }
                                    }
                                }
                            }
                        }
                    }
                }
            }
            JOINT RightCollar
            {
                OFFSET  -3.911900  19.017000  -0.467062
                CHANNELS 3 Zrotation Xrotation Yrotation
                JOINT RightShoulder
                {
                    OFFSET -10.383700   0.000015   0.000000
                    CHANNELS 3 Zrotation Xrotation Yrotation
                    JOINT RightElbow
                    {
                        OFFSET -26.662100   0.001341   0.000385
                        CHANNELS 3 Zrotation Xrotation Yrotation
                        JOINT RightWrist
                        {
                            OFFSET -28.869000   0.000025  -0.000080
                            CHANNELS 3 Zrotation Xrotation Yrotation
                            JOINT RightFinger0
                            {
                                OFFSET  -2.044650  -2.323490   3.252850
                                CHANNELS 3 Zrotation Xrotation Yrotation
                                JOINT RightFinger01
                                {
                                    OFFSET  -3.088130   0.000000   0.000000
                                    CHANNELS 3 Zrotation Xrotation Yrotation
                                    JOINT RightFinger02
                                    {
                                        OFFSET  -2.639460   0.000000   0.000000
                                        CHANNELS 3 Zrotation Xrotation Yrotation
                                        End Site
                                        {
                                            OFFSET  -2.582190   0.000000   0.000000
                                        }
                                    }
                                }
                            }
                            JOINT RightFinger1
                            {
                                OFFSET  -8.364480   0.000000   3.252850
                                CHANNELS 3 Zrotation Xrotation Yrotation
                                JOINT RightFinger11
                                {
                                    OFFSET  -4.646930   0.000000   0.000000
                                    CHANNELS 3 Zrotation Xrotation Yrotation
                                    JOINT RightFinger12
                                    {
                                        OFFSET  -2.323470   0.000000   0.000000
                                        CHANNELS 3 Zrotation Xrotation Yrotation
                                        End Site
                                        {
                                            OFFSET  -2.273050   0.000000   0.000000
                                        }
                                    }
                                }
                            }
                            JOINT RightFinger2
                            {
                                OFFSET  -8.364480   0.000000   1.078090
                                CHANNELS 3 Zrotation Xrotation Yrotation
                                JOINT RightFinger21
                                {
                                    OFFSET  -5.111610   0.000000   0.000000
                                    CHANNELS 3 Zrotation Xrotation Yrotation
                                    JOINT RightFinger22
                                    {
                                        OFFSET  -2.788160   0.000000   0.000000
                                        CHANNELS 3 Zrotation Xrotation Yrotation
                                        End Site
                                        {
                                            OFFSET  -2.727660   0.000000   0.000000
                                        }
                                    }
                                }
                            }
                            JOINT RightFinger3
                            {
                                OFFSET  -7.899780   0.000000  -1.078090
                                CHANNELS 3 Zrotation Xrotation Yrotation
                                JOINT RightFinger31
                                {
                                    OFFSET  -4.646920   0.000000   0.000000
                                    CHANNELS 3 Zrotation Xrotation Yrotation
                                    JOINT RightFinger32
                                    {
                                        OFFSET  -2.323470   0.000000   0.000000
                                        CHANNELS 3 Zrotation Xrotation Yrotation
                                        End Site
                                        {
                                            OFFSET  -2.273050   0.000000   0.000000
                                        }
                                    }
                                }
                            }
                            JOINT RightFinger4
                            {
                                OFFSET  -7.435090   0.000000  -3.252850
                                CHANNELS 3 Zrotation Xrotation Yrotation
                                JOINT RightFinger41
                                {
                                    OFFSET  -3.717550   0.000000   0.000000
                                    CHANNELS 3 Zrotation Xrotation Yrotation
                                    JOINT RightFinger42
                                    {
                                        OFFSET  -1.858770   0.000000   0.000000
                                        CHANNELS 3 Zrotation Xrotation Yrotation
                                        End Site
                                        {
                                            OFFSET  -1.818440   0.000000   0.000000
                                        }
                                    }
                                }
                            }
                        }
                    }
                }
            }
        }
    }
    JOINT LeftHip
    {
        OFFSET   9.783010   0.000000   0.000000
        CHANNELS 3 Zrotation Xrotation Yrotation
        JOINT LeftKnee
        {
            OFFSET   0.000070 -41.789100   0.000028
            CHANNELS 3 Zrotation Xrotation Yrotation
            JOINT LeftAnkle
            {
                OFFSET   0.000087 -41.133200  -0.000100
                CHANNELS 3 Zrotation Xrotation Yrotation
                JOINT LeftToe
                {
                    OFFSET   0.000000  -6.358960  14.674500
                    CHANNELS 3 Zrotation Xrotation Yrotation
                    End Site
                    {
                        OFFSET   0.000000   0.000000   3.913200
                    }
                }
            }
        }
    }
    JOINT RightHip
    {
        OFFSET  -9.783020   0.000000   0.000000
        CHANNELS 3 Zrotation Xrotation Yrotation
        JOINT RightKnee
        {
            OFFSET   0.000044 -41.789100  -0.000870
            CHANNELS 3 Zrotation Xrotation Yrotation
            JOINT RightAnkle
            {
                OFFSET  -0.000090 -41.133200  -0.000245
                CHANNELS 3 Zrotation Xrotation Yrotation
                JOINT RightToe
                {
                    OFFSET   0.000000  -6.358960  14.674500
                    CHANNELS 3 Zrotation Xrotation Yrotation
                    End Site
                    {
                        OFFSET   0.000000   0.000000   3.913200
                    }
                }
            }
        }
    }
}
MOTION
Frames: 6
Frame Time:   0.016667
  2.954730  89.819400  -1.025430   1.051210 -15.454000   9.669960  -2.201260   6.646260   2.021250  -4.686180  13.204700   4.343780   1.394490  -4.518140   0.108015   2.336350  -9.145320  -0.423336   1.345510  -2.536820   1.198440 -34.041200  25.616500 -76.824600  -6.278290 -14.850400 -111.574000  34.549100 -40.568500  49.795800  69.660800  42.040400 -75.035500  -4.184740  -0.004125   0.002596   2.907640  -0.002591  -0.001901 -40.965200   7.353860  -8.368960 -33.957900  -0.000243   0.002678 -24.097000  -0.001528   0.002030 -54.991500  -3.268810   2.286890 -55.056800  -0.001453  -0.001388 -41.292600   0.000312   0.006875 -48.980000  -6.124310   5.301420 -54.333300   0.012680  -0.001429 -39.633600   0.009997  -0.000582 -65.431000  -9.113210   4.136940 -98.640900   0.000668   0.009377 -65.694800   0.000867  -0.000509   6.313240   1.593280   5.411650  71.601400  15.376800   1.656640   3.558770  -4.890080  11.608200 -19.709700 -14.800900  -2.787250 -34.897600  25.390100  63.503200  30.288100  -0.004215   0.002533  10.144100  -0.003670  -0.000583  31.666700   4.796340   7.723390  26.173600   0.002766  -0.002865  18.321500   0.003712  -0.000869  28.107700   0.063526   0.118945  32.728600   0.003144  -0.003294  21.797300   0.006104  -0.004355  28.487300  -0.782549  -1.441700  36.138500  -0.003688  -0.001459  24.068200  -0.000202  -0.002238  37.306300  -3.028370  -3.965840  56.116600  -0.001934  -0.004464  37.373700   0.002763  -0.007430  -1.532670  13.573100  -0.814018   0.165765   3.196150   1.441920  -2.630820  -4.125720   4.855630  -0.000000   0.000000   0.000000   1.617610  11.596300 -11.483300  -1.779220  14.395100 -11.497900  -8.195970  -5.779960  -1.221020  -0.000000   0.000000   0.000000
  2.956970  89.823200  -1.017210   1.035500 -15.454500   9.655800  -2.220800   6.620600   2.054850  -4.728220  13.151200   4.412480   1.399720  -4.499600   0.108449   2.343110  -9.107850  -0.391228   1.338590  -2.527510   1.179010 -34.001300  25.606400 -76.790700  -6.248960 -14.909900 -111.567000  34.658400 -40.483100  49.825100  69.751100  42.076900 -75.170300  -4.397280  -0.004143   0.002603   2.801360  -0.002617  -0.002095 -41.190700   7.430360  -8.407840 -34.148700  -0.000337   0.002672 -24.272300  -0.001555   0.002023 -55.078900  -3.258000   2.272030 -55.143500  -0.001393  -0.001392 -41.357600   0.000277   0.006878 -49.253200  -6.136450   5.261090 -54.320300   0.012787  -0.001583 -39.689800   0.010195  -0.000580 -65.443200  -9.113860   4.135220 -98.659200   0.000631   0.009521 -65.707000   0.000769  -0.000465   6.315870   1.602070   5.385150  71.621400  15.432900   1.674080   3.549420  -4.880610  11.617700 -19.697900 -14.800900  -2.804280 -34.874700  25.390200  63.511500  30.340200  -0.004227   0.002557  10.170100  -0.003742  -0.000602  31.684600   4.789570   7.703850  26.187700   0.002802  -0.002805  18.331400   0.003714  -0.000871  28.111000   0.047455   0.088828  32.752100   0.003090  -0.003245  21.812900   0.006102  -0.004381  28.488300  -0.792303  -1.459370  36.175800  -0.003689  -0.001464  24.093100  -0.000194  -0.002275  37.325500  -3.049390  -3.990840  56.147500  -0.001997  -0.004498  37.394300   0.002815  -0.007400  -1.526600  13.559300  -0.838159   0.163015   3.239500   1.437140  -2.601780  -4.167490   4.891200  -0.000000   0.000000   0.000000   1.658460  11.572400 -11.506900  -1.825890  14.427400 -11.446400  -8.212230  -5.752250  -1.263970   0.000000   0.000000   0.000000
  2.961310  89.827400  -1.008750   1.034420 -15.454600   9.670580  -2.240970   6.599710   2.078200  -4.770570  13.107600   4.460820   1.404430  -4.477260   0.108783   2.347430  -9.062520  -0.389341   1.347730  -2.518150   1.144530 -33.993200  25.598400 -76.757000  -6.183350 -14.981000 -111.536000  34.817100 -40.457200  49.894500  69.849400  42.116500 -75.317000  -4.610690  -0.004167   0.002597   2.694700  -0.002634  -0.002280 -41.435600   7.425170  -8.343960 -34.345200  -0.000417   0.002670 -24.453900  -0.001579   0.002006 -55.175700  -3.246030   2.255570 -55.239500  -0.001324  -0.001385 -41.429600   0.000224   0.006893 -49.596700  -6.151170   5.210180 -54.302200   0.012890  -0.001727 -39.758500   0.010401  -0.000577 -65.462200  -9.114210   4.133780 -98.687600   0.000602   0.009660 -65.725900   0.000684  -0.000426   6.335780   1.613680   5.347930  71.624200  15.493300   1.695250   3.542640  -4.852850  11.619800 -19.672700 -14.794700  -2.832390 -34.854000  25.398500  63.527500  30.377500  -0.004234   0.002578  10.188700  -0.003823  -0.000626  31.690300   4.781540   7.686620  26.191900   0.002839  -0.002744  18.334400   0.003713  -0.000871  28.111500   0.030394   0.056896  32.756000   0.003033  -0.003198  21.815500   0.006104  -0.004407  28.487900  -0.796702  -1.467380  36.184600  -0.003687  -0.001471  24.098900  -0.000189  -0.002310  37.336400  -3.066480  -4.011170  56.165600  -0.002058  -0.004534  37.406300   0.002866  -0.007368  -1.539920  13.540800  -0.859816   0.171945   3.288800   1.436500  -2.574630  -4.202720   4.896290  -0.000000   0.000000  -0.000000   1.693040  11.565600 -11.530100  -1.873520  14.444900 -11.383900  -8.221550  -5.716680  -1.346420   0.000000   0.000000   0.000000
  2.965230  89.830900  -1.001370   1.043360 -15.453700   9.707420  -2.261700   6.578630   2.100080  -4.813860  13.063700   4.506240   1.408670  -4.453100   0.109051   2.354220  -9.013460  -0.389025   1.365020  -2.505490   1.105360 -33.992600  25.601500 -76.729900  -6.104740 -15.048000 -111.497000  34.978600 -40.436400  49.972800  69.984700  42.171600 -75.518900  -4.768720  -0.004191   0.002588   2.615680  -0.002650  -0.002465 -41.698000   7.420560  -8.248790 -34.555000  -0.000490   0.002667 -24.648300  -0.001603   0.001988 -55.279100  -3.233190   2.237960 -55.342200  -0.001254  -0.001374 -41.506600   0.000170   0.006909 -50.007500  -6.168270   5.149340 -54.278900   0.012989  -0.001868 -39.839000   0.010607  -0.000575 -65.496800  -9.115260   4.129870 -98.739200   0.000572   0.009797 -65.760200   0.000601  -0.000385   6.359840   1.629750   5.307850  71.634400  15.548200   1.707180   3.538300  -4.832540  11.619800 -19.640500 -14.778500  -2.860070 -34.843400  25.404100  63.537600  30.396900  -0.004241   0.002590  10.198400  -0.003902  -0.000650  31.692600   4.773960   7.676720  26.192500   0.002876  -0.002682  18.334800   0.003712  -0.000870  28.111600   0.019581   0.036674  32.756600   0.002976  -0.003149  21.815900   0.006106  -0.004432  28.487400  -0.799200  -1.472010  36.185800  -0.003684  -0.001480  24.099700  -0.000183  -0.002344  37.339500  -3.075700  -4.023090  56.171400  -0.002118  -0.004570  37.410100   0.002916  -0.007337  -1.561340  13.519500  -0.882217   0.183648   3.333640   1.435860  -2.552180  -4.231400   4.897170   0.000000   0.000000   0.000000   1.722000  11.558500 -11.562000  -1.919810  14.461500 -11.309400  -8.231530  -5.683030  -1.452360  -0.000000   0.000000   0.000000
  2.966820  89.832100  -0.996376   1.055550 -15.438300   9.760270  -2.282700   6.551260   2.128240  -4.858020  13.006800   4.564000   1.414300  -4.429940   0.109274   2.363690  -8.966350  -0.397018   1.385810  -2.485390   1.068720 -33.997700  25.632400 -76.707300  -6.013400 -15.105700 -111.459000  35.140600 -40.414000  50.056700  70.196500  42.257800 -75.834300  -4.818740  -0.004212   0.002582   2.590630  -0.002673  -0.002661 -42.028000   7.446410  -8.187880 -34.824900  -0.000569   0.002659 -24.898900  -0.001631   0.001972 -55.379900  -3.220600   2.220790 -55.442300  -0.001188  -0.001372 -41.581700   0.000137   0.006914 -50.524700  -6.189120   5.073010 -54.247500   0.013084  -0.002013 -39.938000   0.010807  -0.000576 -65.558700  -9.119280   4.120200 -98.831100   0.000529   0.009934 -65.821400   0.000504  -0.000334   6.367440   1.651600   5.265650  71.671300  15.600000   1.701800   3.540540  -4.843350  11.618700 -19.609200 -14.752400  -2.881880 -34.848200  25.377500  63.503600  30.379300  -0.004249   0.002577  10.189600  -0.003968  -0.000672  31.674100   4.769620   7.677210  26.177100   0.002911  -0.002617  18.324000   0.003711  -0.000873  28.106700   0.019301   0.036156  32.722100   0.002920  -0.003095  21.792900   0.006106  -0.004458  28.486800  -0.800164  -1.474050  36.141900  -0.003684  -0.001490  24.070400  -0.000175  -0.002375  37.311600  -3.072970  -4.023750  56.129500  -0.002176  -0.004603  37.382100   0.002966  -0.007310  -1.571080  13.495600  -0.905396   0.187082   3.363590   1.417460  -2.537630  -4.254520   4.893520  -0.000000   0.000000   0.000000   1.741890  11.528400 -11.611900  -1.962570  14.490000 -11.206200  -8.242160  -5.659130  -1.576680  -0.000000   0.000000   0.000000
  2.967140  89.832300  -0.992318   1.072140 -15.410900   9.830640  -2.304490   6.520890   2.158930  -4.903880  12.943800   4.626750   1.420020  -4.406060   0.109494   2.373430  -8.917800  -0.405007   1.398330  -2.463470   1.035300 -34.003900  25.667700 -76.682000  -5.958720 -15.136100 -111.438000  35.304200 -40.383700  50.136000  70.441500  42.355300 -76.198400  -4.825880  -0.004233   0.002574   2.587050  -0.002697  -0.002858 -42.267100   7.486020  -8.158510 -35.020100  -0.000642   0.002650 -25.080400  -0.001659   0.001955 -55.489200  -3.206900   2.202170 -55.550900  -0.001124  -0.001371 -41.663200   0.000103   0.006917 -51.032100  -6.209160   4.998280 -54.215200   0.013176  -0.002153 -40.033700   0.011000  -0.000577 -65.639800  -9.125350   4.107060 -98.951400   0.000491   0.010066 -65.901600   0.000412  -0.000282   6.367420   1.678580   5.236740  71.728200  15.632300   1.682550   3.543100  -4.854240  11.613200 -19.573600 -14.720500  -2.894500 -34.850100  25.326300  63.438000  30.361700  -0.004256   0.002565  10.180800  -0.004035  -0.000694  31.655300   4.767640   7.677720  26.161700   0.002948  -0.002551  18.313200   0.003711  -0.000878  28.101800   0.019021   0.035638  32.687600   0.002866  -0.003043  21.769900   0.006106  -0.004483  28.486200  -0.800577  -1.475060  36.097900  -0.003685  -0.001501  24.041200  -0.000166  -0.002408  37.283700  -3.070240  -4.024040  56.087500  -0.002234  -0.004637  37.354200   0.003016  -0.007284  -1.572200  13.471300  -0.930337   0.189279   3.376460   1.382290  -2.532440  -4.265450   4.881760  -0.000000   0.000000  -0.000000   1.754420  11.485100 -11.667200  -1.999320  14.527700 -11.104000  -8.252800  -5.648070  -1.706550  -0.000000   0.000000  -0.000000
